<svg width="107" height="62" viewBox="0 0 107 62" fill="none" xmlns="http://www.w3.org/2000/svg">
<g clip-path="url(#clip0_39_4)">
<path fill-rule="evenodd" clip-rule="evenodd" d="M88.5125 40.0945C88.6311 40.3613 89.1374 40.6972 89.3276 40.6972C89.4783 40.6972 89.4956 40.5638 89.5326 40.5638C89.7426 40.4625 90.0883 40.4971 90.0192 40.2946C90.1427 40.1266 90.3428 39.9587 90.3057 39.724C90.2884 39.6252 90.1995 39.524 90.1773 39.3881C90.1625 39.2868 90.2316 39.2523 90.2316 39.2523C90.1822 38.9509 89.7401 38.7854 89.5919 38.7854C88.8731 38.7854 88.3915 39.3214 88.4878 39.9266L88.5125 40.097V40.0945ZM30.684 39.8154C30.8025 40.0846 31.3064 40.4205 31.4941 40.4205C31.6448 40.4205 31.6621 40.2872 31.6991 40.2872C31.9091 40.1859 32.2549 40.2205 32.1857 40.0204C32.3092 39.85 32.5093 39.6845 32.4722 39.4499C32.4549 39.3461 32.366 39.2449 32.3438 39.1115C32.329 39.0102 32.3981 38.9781 32.3981 38.9781C32.3512 38.6743 31.9066 38.5063 31.7584 38.5063C31.0397 38.5063 30.5605 39.0473 30.6543 39.6524L30.684 39.8204V39.8154ZM106.901 44.8615L106.993 44.9628C107.067 45.432 106.476 46.0026 106.536 46.3731L106.249 46.9436C106.222 47.0103 106.131 47.1462 106.136 47.1808L105.827 47.6179C105.772 47.7513 105.721 47.8872 105.622 47.9884C105.558 48.0551 105.301 48.8282 104.913 48.9937L104.206 49.5297C104.103 49.5963 103.396 49.9002 103.018 49.9002C102.905 49.9002 102.485 49.8631 102.44 49.8335C102.45 49.9002 101.052 49.1616 100.983 48.722C100.971 48.6553 101.001 48.5886 100.993 48.554C100.912 48.5195 100.899 48.4528 100.892 48.3861L100.865 48.2181C100.855 48.1514 100.805 48.0847 100.763 48.0502H100.613C100.556 47.9143 100.534 47.7809 100.514 47.6451C100.469 47.3783 100.462 47.0745 100.413 46.7707L100.371 46.504C99.4469 46.6398 99.3926 47.245 98.9875 47.7809C98.9579 47.8476 98.701 47.8822 98.7208 48.0156L98.7455 48.1835C98.6516 48.2848 98.4293 48.3194 98.3355 48.4528C98.207 48.5861 97.8365 49.5939 96.6683 49.5939H96.5176C96.2928 49.5939 95.8779 49.3568 95.8705 49.3247C95.4185 49.3247 95.1073 48.7887 94.6775 48.4528C94.4898 48.2181 94.349 47.5809 94.3292 47.445C94.3045 47.2968 94.3119 47.1388 94.3589 46.8695L94.3194 46.9091C94.2946 46.9757 94.186 47.0103 94.1909 47.0449C94.102 47.2129 94.2008 47.3462 94.1465 47.4796C94.1168 47.5488 93.897 47.5809 93.8772 47.6822C93.8204 47.818 93.8698 47.8847 93.7735 47.986C93.7142 48.0872 93.3413 48.1193 93.3511 48.186C93.3734 48.3219 93.1832 48.5565 93.1881 48.5886C93.2153 48.7566 92.5138 49.3271 92.1088 49.6309C91.7037 49.9323 91.8865 50.1323 91.3209 50.1323C91.0936 50.1323 90.9578 50.2336 90.7701 50.2336C90.733 50.2336 90.696 50.2336 90.6144 50.2015C90.5749 50.2015 90.5058 50.2336 90.4687 50.2336C90.0538 50.2336 89.5376 49.831 89.3103 49.831C88.9695 49.831 88.8435 49.4926 88.5397 49.2604C88.4829 49.1888 88.4434 48.7689 88.394 48.7047C88.3149 48.8257 88.231 48.9591 88.1297 49.1048C87.5666 49.957 87.4258 50.2805 86.2995 51.2018C85.8623 51.5377 85.5042 52.3627 84.5705 52.4071C84.2692 52.422 83.9975 52.3726 83.6937 52.3726C81.945 51.8761 81.325 50.9079 81.1398 49.7297C81.0484 49.1592 81.0731 48.5861 81.078 48.149L81.1768 47.5784C81.2213 47.3784 81.2855 47.3117 81.33 47.1116C81.2905 46.8745 81.2657 46.8942 81.3053 46.6596C81.33 46.5929 81.5078 46.0643 81.4115 45.4617C81.4115 45.4617 81.3596 45.3629 81.3448 45.2937C81.3201 45.1258 81.6239 44.654 81.5547 44.2168C81.4806 43.7475 81.2386 43.4141 80.878 43.0411L80.6952 42.8411C80.5001 43.0411 80.4778 43.3771 80.379 43.4783C80.384 43.5104 80.3914 43.545 80.4334 43.5771C80.3148 43.7797 80.1123 44.4169 80.0975 44.5527C80.1271 44.7232 79.811 45.106 79.6578 45.4567C79.643 45.5432 79.6208 45.6321 79.5862 45.721C79.5813 45.7581 79.5763 45.7951 79.5813 45.8297C79.6134 46.0446 79.438 46.1483 79.2898 46.1928C79.191 46.3039 79.07 46.4077 78.9341 46.5015C78.9242 46.4694 78.7588 46.8374 78.4895 47.04C78.2302 47.3067 78.3167 47.3759 78.2327 47.5759C78.208 47.6402 77.7906 47.8773 77.6621 48.0131C77.5312 48.1465 77.6226 48.2453 77.546 48.4824C77.4769 48.5145 77.3336 48.5837 77.3336 48.5837C77.3287 48.5516 76.9014 49.1888 76.3679 49.3913C75.8344 49.5914 75.8689 49.8285 75.3972 49.9273C75.0712 50.2632 74.8859 50.0607 74.5055 50.2632L74.219 50.3645C73.9177 50.3645 73.8238 50.4979 73.2582 50.4979L72.4407 50.5646C72.4777 50.5646 70.5042 50.4979 69.8571 49.4877C69.7657 49.3889 69.6867 49.1197 69.5879 48.9863L69.3088 48.6504L69.1112 48.1144C69.0914 47.981 69.1038 47.8131 69.0643 47.5784C69.0421 47.4426 68.8445 47.1412 68.8247 47.0079C68.8198 46.9758 68.9531 46.8745 68.9729 46.7707C68.8988 46.6719 68.8568 46.625 68.8371 46.5781L68.5826 46.9066C68.5555 46.9733 68.4493 47.0079 68.4542 47.0424C68.3678 47.2104 68.4641 47.3438 68.4098 47.4771C68.3579 47.613 67.7873 47.8476 67.8417 48.1835C67.8614 48.3194 67.6712 48.554 67.6786 48.5861C67.6737 48.554 66.6116 50.199 65.6311 50.199C65.5175 50.199 65.4335 50.1323 65.3569 50.1323C65.2803 50.1323 65.1741 50.1669 65.063 50.1669C64.8259 49.8631 64.5665 49.9002 64.1565 49.6976C63.8305 49.0604 63.1834 48.3194 63.1093 47.8476C63.0401 47.4105 63.176 47.0745 63.1068 46.6398C63.092 46.5386 63.0401 46.4373 63.0253 46.336C62.6202 46.8745 62.4325 48.0848 62.351 48.2848L61.8669 49.0579C61.5927 49.458 61.2618 49.7594 60.8616 50.0953C60.5628 50.367 60.254 50.8017 59.7008 50.8708C59.5871 50.6337 59.0759 50.735 59.0438 50.5325C59.0314 50.4658 59.0536 50.367 59.0487 50.3324L57.584 49.4259L57.0308 48.7887L57.0085 48.6528C56.9715 48.4182 56.8159 48.1514 56.7739 47.8822C56.7566 47.7735 56.7492 47.6476 56.7492 47.5167C56.6282 47.6525 56.1613 47.8773 56.2107 48.1835C56.2305 48.3194 56.0403 48.554 56.0477 48.5861C56.0576 48.6528 55.0054 50.1323 54.0248 50.1323C53.5729 50.1323 53.6593 49.9644 53.4568 49.8631C53.2938 49.7964 53.148 49.831 53.0146 49.6976L52.9924 49.5618C52.9776 49.4605 52.5627 49.4605 52.1897 49.2604C51.9378 49.0925 52.1354 48.9245 51.834 48.6899C51.5574 48.354 51.4586 47.7488 51.3573 47.5834C51.1696 47.3487 51.1005 47.1462 51.093 47.1116C51.0338 47.1758 50.9893 46.089 51.0683 45.8964C50.6731 46.4447 50.4928 47.6179 50.4113 47.818L49.9297 48.5886C49.5073 49.2604 48.6552 50.0681 47.7488 50.0681C47.4845 50.0681 47.2844 50.0014 47.1115 49.8656L45.6468 48.9591L45.0936 48.3219L45.0713 48.186C45.0343 47.9514 44.8762 47.6822 44.8342 47.4154C44.8046 47.2129 44.8639 47.1116 44.8243 46.8794C44.8194 46.8448 44.7799 46.8103 44.7725 46.7757C44.728 46.5089 44.933 46.1088 44.8836 45.8025C45.0195 44.7602 45.5209 44.5972 45.5876 44.528C46.2372 43.8538 46.3878 42.9176 47.9686 42.6435C48.0575 42.478 48.2007 42.4459 48.3909 42.4459H48.88C49.8778 42.5447 50.725 42.8806 50.7571 43.0807C50.7744 43.1819 50.562 43.2832 50.4657 43.382C50.0087 43.1152 49.6975 43.0461 49.4703 43.0461C49.3196 43.0461 49.1739 43.0782 49.0603 43.0782C49.0232 43.0782 48.9417 43.0461 48.7911 43.0461C48.4132 43.0461 48.5589 43.4833 48.4403 43.6858C48.3193 43.8883 47.9266 44.0217 47.9957 44.4564C47.8648 44.78 47.7981 44.9282 47.766 44.9899C47.7611 45.0591 47.7463 45.185 47.7265 45.3999C47.7166 45.5679 47.608 45.8346 47.6178 45.9038C47.3906 45.9038 47.4894 47.4796 47.4943 47.5142C47.5215 47.6821 47.3585 48.554 47.4474 49.1246C47.4697 49.2604 47.5289 49.3963 47.6006 49.6309C48.2427 49.6309 48.6725 48.9912 49.1887 48.4552C49.3172 48.3219 49.6061 48.2206 49.7 48.0872C49.6802 47.986 49.8383 47.5512 49.9124 47.5512C50.0211 47.2796 50.031 46.3756 50.4286 46.2743C50.5274 45.9384 50.3619 45.6 50.4138 45.2295C50.4138 45.2295 50.5225 45.1974 50.5472 45.0961L50.5027 44.8269C50.5299 44.7578 50.7349 44.6268 50.767 44.5923C50.8041 44.3576 50.7472 44.2218 50.7966 44.0563C50.8559 43.955 51.0239 43.8192 51.0807 43.6858L51.1498 43.419C51.1498 43.419 51.9946 42.3076 52.2589 42.3076C52.3329 42.3076 52.3823 42.3743 52.4416 42.5101C53.0986 42.6114 53.1085 43.382 53.2518 43.8216C53.2666 43.9229 53.1801 44.0909 53.1851 44.1254C53.148 44.1254 53.4222 44.6614 53.479 45.0294C53.5012 45.1653 53.4271 45.1653 53.4098 45.3011C53.4247 45.4024 53.558 45.5333 53.558 45.5333C53.4469 45.5333 53.3975 45.7013 53.4864 46.2743C53.5506 46.6744 53.6519 47.077 53.6519 47.077C53.684 47.0449 53.5111 48.0872 53.5729 48.4873C53.6297 49.0925 53.5012 49.2283 53.5432 49.4926C53.7754 49.5272 53.931 49.5618 54.0446 49.5618C54.3459 49.5618 54.4447 49.2259 54.6942 49.1246C54.8449 49.1246 55.124 48.9912 55.124 48.9912C55.1141 48.9245 55.0721 48.8924 55.0598 48.8233C55.8057 48.0526 55.45 48.1835 55.7093 47.9143C55.734 47.8476 55.8872 47.8476 55.9045 47.7143C56.1045 47.3117 56.5886 46.3039 56.8529 46.3039C56.8332 46.3237 57.0061 45.8544 57.2209 45.4493C57.216 45.4296 57.2111 45.4123 57.2086 45.3975C57.1814 45.2221 57.4605 45.022 57.5816 44.9257C57.584 44.9208 57.5865 44.9208 57.5914 44.9183C57.6038 44.9084 57.6161 44.901 57.6235 44.8936C57.915 44.5923 59.3426 43.1128 59.9453 43.1128C60.2046 43.0757 60.7925 42.9769 61.3606 42.9769C62.1509 42.9769 62.5708 43.2462 62.9512 43.5129L63.2179 40.6577C63.2451 40.3563 63.4674 39.8525 63.4625 39.8179C63.4575 39.7858 63.4032 39.682 63.3983 39.6499L63.3933 39.6178C63.5909 39.4153 63.6601 39.1461 63.6008 38.778C63.5736 38.6101 63.9095 38.3409 63.9787 38.0692L64.3912 37.0985C64.5641 36.7626 64.8086 36.3946 65.058 36.0562C65.1396 35.8561 65.1766 35.6215 65.2631 35.4535C65.3273 35.3868 65.5891 35.3522 65.6459 35.251C65.7966 35.0163 66.1127 34.3791 66.4042 34.0753C66.503 33.9765 67.0068 33.8061 67.3106 33.3689C67.8244 33.0354 68.9161 32.7637 69.8942 32.7637C70.7241 32.7637 71.4354 32.9663 71.5243 33.5368C71.5836 33.9049 71.265 34.51 71.3712 35.1818C71.3761 35.2139 70.3289 37.1973 69.4397 38.0049L69.0766 38.3409C69.089 38.4075 68.8173 38.6101 68.6617 38.8101C68.4666 39.2473 68.1875 39.1461 67.9874 39.314C67.9158 39.3461 68.0096 39.4474 67.8614 39.482C67.8985 39.482 67.365 39.682 67.1353 39.8846C67.0315 39.9537 67.1155 40.2551 66.8191 40.2896C66.7475 40.3217 66.4733 40.4922 66.3869 40.6577C66.3004 40.8256 65.6829 40.996 65.5817 41.2974C65.4755 41.5666 65.4656 42.2359 65.2927 42.8065L65.3643 43.2437C65.394 43.4462 65.2631 43.5771 65.3001 43.8142C65.3174 43.9155 65.3717 44.0168 65.3791 44.0835C65.4088 44.2514 65.2779 44.3848 65.305 44.5527L65.3372 44.7528C65.4162 45.2591 65.0976 45.6272 65.1766 46.1335C65.2038 46.3015 65.2952 46.6374 65.2952 46.6374C65.1321 46.8029 65.2507 47.0721 65.1321 47.04C65.147 47.1412 65.2458 47.2721 65.268 47.408C65.1321 47.5093 64.942 47.7439 65.0753 48.5837C65.1396 48.7516 65.2087 48.9517 65.2359 49.1197L65.2137 49.2209C65.2952 49.4877 65.8361 49.3197 65.9744 49.4877C66.3449 49.2209 66.4955 48.9863 66.7623 48.9863C66.7524 48.9196 66.7104 48.8875 66.6981 48.8183C67.4465 48.0477 67.0908 48.1786 67.3477 47.9094C67.3748 47.8427 67.5255 47.8427 67.5428 47.7093C67.7429 47.3067 68.227 46.299 68.4888 46.299C68.4666 46.3237 68.7728 45.5086 69.0692 45.0912C69.2026 44.8714 69.4348 44.5157 69.4866 44.2514L69.4446 43.9822C69.5039 43.8809 69.7608 43.8463 69.8547 43.713C69.9115 43.6142 69.8497 43.4462 69.9065 43.3425L70.2968 42.9399C70.4326 42.8411 70.6525 42.8065 70.8253 42.7052C71.3119 42.2038 71.5811 42.0013 73.0211 41.7988C73.0211 41.7988 73.0359 41.6654 73.2632 41.6654C74.3203 41.6654 75.086 41.9667 75.5083 43.2091C75.6368 44.0168 75.0563 45.1233 74.6414 45.1233C74.713 45.0912 74.1425 45.7927 73.3496 45.7927H73.1619C72.9791 45.8272 72.4604 46.131 71.8948 46.131C71.8183 46.131 71.7392 46.0989 71.6627 46.0989L71.4774 46.6003C71.4898 46.667 71.5416 46.7683 71.5515 46.8374L71.6429 48.1144C71.6429 48.1144 71.7713 48.2157 71.796 48.3836C71.801 48.4157 71.6898 48.4157 71.7046 48.517C71.7145 48.5837 71.8281 48.8208 71.8973 49.0233C72.1319 49.7939 72.4654 49.9965 73.3743 49.9965C74.3919 49.9965 75.2564 49.258 75.4466 49.258C75.5602 49.258 75.8171 48.9887 75.8887 48.9542C76.0394 48.9542 76.3629 48.8554 76.3629 48.8554C76.3531 48.7887 76.3086 48.7541 76.2987 48.6874L76.6371 48.4528C77.1434 48.3194 76.9113 48.0502 77.1064 47.8476C77.1385 47.8155 77.2966 47.8476 77.3509 47.7143C77.6275 47.3117 78.1314 46.4373 78.5093 46.4373C78.4574 46.4892 78.8082 45.6469 79.27 45.2888C79.3516 45.1381 79.4133 45.0023 79.401 44.9282C79.3367 44.5256 79.8159 44.4564 79.7418 43.9871C79.6677 43.5154 80.0357 43.4512 79.9666 43.014L80.0308 42.7102C80.0258 42.6756 80.0505 42.6114 80.0851 42.5743L80.1123 42.273L80.1938 42.0729C80.2358 42.105 79.3194 40.8281 79.2305 40.26C79.1984 40.0575 79.2256 39.9883 79.3392 39.7561C79.3565 39.6228 79.3219 38.2124 80.9076 38.2124C81.0978 38.2124 81.2905 38.2421 81.5992 38.2766C81.8363 38.578 81.9647 38.9139 82.0166 39.2498C82.0709 39.5857 82.0537 39.9562 82.029 40.2921L82.066 40.5268C82.029 40.5268 81.7227 40.7268 81.7523 40.9318L81.7721 41.0652C81.8585 41.1319 82.0216 41.1986 82.0314 41.2653C82.0487 41.369 82.6687 41.7049 82.5625 42.0062C82.602 42.0062 82.6341 41.9717 82.7107 41.9717L82.7304 42.105C82.8169 42.641 83.4665 43.1819 83.6492 43.6191C83.7826 43.9871 83.9185 44.3576 83.9827 44.7578C84.0197 44.9949 84.0617 45.2641 84.0148 45.4642C83.9827 45.4963 83.9407 45.4641 83.9506 45.5308C83.9604 45.5975 84.0296 45.7976 84.0444 45.9038C84.0222 46.2397 83.9135 46.2298 83.9283 46.5633C83.9012 46.8671 84.0049 46.8794 83.9851 47.2153C83.9901 47.2499 83.8765 47.2499 83.8938 47.3512C83.8987 47.3833 83.9654 47.5537 83.9802 47.6525C84.0024 47.7859 83.8493 48.023 83.8295 48.1218C83.8246 48.3243 83.8542 48.5269 83.8938 48.7615C83.7036 48.7615 83.8394 50.572 83.7184 51.4809C84.0963 51.4809 84.1556 51.8514 84.3803 51.8514C84.8719 51.8514 85.0793 51.4809 85.5338 51.0116H85.6845C85.7981 51.0116 85.8944 50.6757 86.1834 50.3398C86.3069 50.1718 86.9392 49.6334 86.9293 49.5692C86.8849 49.2975 87.574 49.1394 87.7814 48.5367C87.7814 48.5367 87.8951 48.2527 87.8901 48.2231C87.9543 48.1564 87.7197 47.1486 87.9148 46.9461C87.9074 46.914 87.8259 46.8794 87.7518 46.8794C87.7469 46.6077 87.5641 45.1999 87.8876 45.0986L87.9198 44.8294C87.937 44.696 88.1495 44.1254 88.1173 44.1576L88.3569 43.5178C88.389 43.4857 88.4113 43.3845 88.4335 43.2857C88.4286 43.2536 88.7398 42.6138 89.0806 42.6138C89.1201 42.6138 89.3844 42.3767 89.913 42.3767H90.0637C90.2687 42.478 90.3625 42.8485 90.3798 42.9473C90.3848 42.9819 90.36 43.0486 90.3699 43.1177L90.3897 43.2511C90.3897 43.2511 90.4169 43.4215 90.4317 43.5178L90.4687 43.755C90.486 43.8538 90.4193 44.1576 90.4342 44.2588L90.4638 44.4268C90.486 44.5602 90.5428 44.696 90.57 44.864C90.6021 45.0665 90.5453 45.1653 90.4613 45.3703C90.4786 45.4691 90.528 45.5358 90.5354 45.6025C90.5404 45.6346 90.5082 45.6692 90.4786 45.7037C90.4144 45.7704 90.4663 46.8448 90.4366 46.8794C90.5107 46.8794 90.5181 46.9115 90.5231 46.9461C90.5404 47.0474 90.491 47.2153 90.5181 47.3833C90.5231 47.4154 90.3798 48.4231 90.486 49.095C90.5132 49.2629 90.6046 49.3617 90.9108 49.6334H91.0615C91.2863 49.6334 91.4172 49.2629 91.6988 49.1271C92.2273 49.1271 92.1038 48.8257 92.2174 48.8257C92.1532 48.8924 93.2499 48.186 93.2894 47.7167C93.4919 47.3141 93.9711 46.3064 94.2354 46.3064C94.2181 46.3286 94.4033 45.8248 94.6281 45.4049C94.759 45.0887 95.1492 44.6565 95.4061 44.3922C95.4703 44.3255 95.4703 44.0909 95.537 44.0217C95.7791 43.8883 96.1965 43.8883 96.4311 43.7204C96.6263 43.5178 96.5596 43.3499 97.965 43.1498C97.965 43.1498 97.9823 43.0164 98.0959 43.0164H98.3206C98.6985 43.0164 99.1234 43.0807 99.5605 43.2165C99.7162 43.2511 99.6618 43.3845 99.8248 43.4536C99.9434 43.4857 100.282 43.4857 100.405 43.5524L100.652 43.6883C100.823 43.587 100.924 43.0164 101.186 43.0164C101.26 43.0164 101.344 43.0486 101.381 43.0486C101.64 42.7818 101.541 42.6435 102.072 42.6435C102.164 42.7472 102.147 42.8806 102.201 42.9819L102.453 43.3845C102.47 43.4857 102.448 43.587 102.47 43.7204C102.47 43.7204 102.71 44.2909 102.727 44.3922C102.752 44.5602 102.626 44.6935 102.66 44.9282C102.692 45.1307 102.779 45.432 102.821 45.6988C102.804 45.8322 102.89 46.3706 102.873 46.5065C102.883 46.5731 102.71 46.6744 102.72 46.7436C102.732 46.8078 102.776 46.8424 102.791 46.9436L102.747 47.6155C102.729 47.7488 102.601 47.8847 102.621 48.0181C102.636 48.1193 102.734 48.2502 102.749 48.354C102.776 48.5219 102.776 48.7566 102.801 48.9245L103.226 49.2259C103.231 49.258 103.275 49.2926 103.312 49.2926C103.503 49.2926 103.977 48.9542 104.135 48.9887C104.13 48.9542 104.083 48.9221 104.083 48.8899H104.12C104.446 48.554 104.703 48.2848 105.029 47.9489C105.034 47.9835 105.908 46.1039 106.059 46.1039C105.995 46.1706 106.58 44.859 106.918 44.859L106.901 44.8615ZM71.9294 44.2242C71.8158 44.4589 71.6182 44.8961 71.6849 45.3011L71.7096 45.4691C71.8281 45.5012 71.9417 45.5012 72.0529 45.5012C72.4678 45.5012 72.863 45.3678 73.2261 45.2666C73.3224 45.1653 73.7596 45.064 73.9226 44.8985C74.2981 44.6614 74.5648 44.6614 74.5253 44.4268C74.5302 44.4589 74.834 43.755 74.7352 43.1177C74.6858 42.8139 74.429 42.3767 74.429 42.3767C74.3919 42.3767 74.3228 42.4113 74.2857 42.4113C74.1227 42.3422 73.9276 42.31 73.7769 42.31C73.362 42.31 72.9396 42.5126 72.7198 42.7818L72.5938 42.9498C72.5667 43.0189 72.3394 43.0189 72.3616 43.1523L72.3913 43.3202C72.3073 43.5203 72.0702 43.9254 72.0751 43.96C72.0801 43.9921 72.1295 44.0612 72.1344 44.0933C72.1072 44.16 71.959 44.16 71.9294 44.2267V44.2242ZM65.846 39.1535C65.8015 39.3535 65.7175 39.5561 65.7521 39.7586C65.762 39.8253 65.8954 40.1933 66.0436 40.1933C66.1498 39.892 66.6215 39.7907 66.7549 39.6573C66.7845 39.6252 67.1106 39.524 67.7898 38.8176C68.3035 38.4816 68.1578 38.5162 68.2937 38.1803C68.3949 38.1136 68.6197 38.0766 68.6839 38.0124L68.7753 37.8765C69.4595 37.1701 70.0374 36.0611 70.524 35.3226C70.5709 35.1571 70.7883 35.0904 70.8476 34.9867C70.8649 34.8533 70.8327 34.6508 70.855 34.5495C70.9143 34.4507 71.0032 34.2828 70.9686 34.0802C70.9587 34.0135 70.9044 33.9123 70.8994 33.8777C70.8945 33.8456 71.1094 33.7764 71.0995 33.7097C71.0872 33.643 71.1143 33.5764 71.1044 33.5121C71.0501 33.1738 70.7216 33.0058 70.3832 33.0058C70.156 33.0058 69.9139 33.1392 69.7608 33.1392C69.6077 33.1392 69.4817 33.0404 69.4076 33.0404C69.1063 33.0404 68.7975 33.4751 68.5308 33.4751H68.3826C68.3184 33.5418 68.269 33.7097 68.2418 33.7764C68.0467 33.9814 67.8565 33.9814 67.8738 34.0802C67.5329 34.5495 67.1945 34.5495 67.2316 34.7866C67.2538 34.92 66.5869 35.7252 66.624 35.9623C66.6734 36.2636 66.256 36.2636 66.3054 36.565L66.3424 36.8021C65.9522 37.2047 66.2041 37.3726 66.0757 37.7431C66.0164 38.0766 65.8707 38.1112 65.9299 38.4792L65.846 39.151V39.1535ZM62.7314 44.528C62.7067 44.3601 62.7215 44.2267 62.7314 44.0588C62.1682 43.587 61.736 43.4882 61.4347 43.4882C61.2469 43.4882 61.0987 43.5203 60.9481 43.5203H60.7208C60.3454 43.5203 60.4887 43.96 60.3701 44.16C60.3108 44.2613 60.1651 44.2934 60.1058 44.3971C60.0021 44.6985 59.6983 45.4049 59.5452 46.3434C59.3451 47.4524 59.3278 48.7961 59.5353 50.1052C60.1775 50.1052 60.6023 49.4679 61.121 48.9319C61.2519 48.7986 61.5384 48.6948 61.6298 48.5614C61.6594 48.4948 61.6965 48.0255 61.8471 48.0255C61.9558 47.7563 61.9632 46.8498 62.3633 46.7485C62.4621 46.4126 62.2942 46.0767 62.351 45.7062C62.351 45.7062 62.4572 45.6741 62.4819 45.5728L62.4374 45.3061C62.4671 45.2369 62.6696 45.1035 62.7042 45.069C62.7412 44.8343 62.6844 44.7009 62.7338 44.533L62.7314 44.528ZM80.9545 40.1933C81.367 40.1933 81.4979 39.8253 81.4535 39.524C81.4312 39.3881 81.3769 39.2868 81.2905 39.2202C81.204 39.1535 81.0854 39.1214 81.0113 39.1214C80.8236 39.1214 80.6211 39.2893 80.668 39.5906C80.6952 39.7586 80.8039 39.9611 80.9545 40.1933ZM100.089 45.4691C100.232 45.1678 100.432 44.7627 100.479 44.5972C100.474 44.5626 100.383 44.4614 100.378 44.4292L100.435 44.0612C100.208 44.0612 99.9335 43.7599 99.894 43.7599C99.8149 43.7253 99.5507 43.7253 99.4692 43.6932C99.2222 43.5574 98.9752 43.4265 98.6714 43.4265C98.5948 43.4265 98.5256 43.4586 98.4491 43.4586C98.3676 43.6586 97.6711 44.0291 97.7081 44.2638L97.7402 44.4638C97.7451 44.4984 97.4858 44.5305 97.4907 44.5651C97.3574 44.901 97.2684 45.069 97.2734 45.1035C97.1375 45.4395 97.098 45.9112 97.0017 46.2446C96.9523 46.4126 96.8165 46.7485 96.8535 46.9832L96.8782 47.1511C96.7967 47.5883 96.6016 48.023 96.6707 48.4602C96.6905 48.5936 97.1005 48.7961 97.1375 48.7961C97.592 48.7961 98.3676 47.2499 98.9702 46.7782C99.2345 46.546 99.3679 46.4447 99.4889 46.2446C99.6915 45.8396 99.9063 45.7729 100.084 45.4716L100.089 45.4691ZM46.0914 54.0447L46.6323 55.9144L46.41 56.1244C46.4693 56.6283 46.3261 57.1963 45.9951 57.8533L46.0149 58.172L45.1207 59.2661C45.1207 59.2661 44.8268 59.3254 44.486 59.6465C44.4786 59.7107 43.987 59.8342 43.8957 59.9824C43.6561 59.98 43.0756 60.6468 42.2803 60.6542C41.9889 60.7728 41.3516 60.8049 41.0231 60.8864C40.3834 60.9161 39.7289 61.1112 39.1386 61.0198L38.9805 60.9951C38.8644 60.9432 38.7088 60.921 38.5902 60.9012L38.2 60.8395C38.0049 60.8099 37.8073 60.7777 37.6196 60.6493L37.3281 60.3727C37.2219 60.2245 36.8514 60.3628 36.7798 59.854C36.7007 59.8416 36.3969 59.6934 36.4859 59.5749C36.7971 59.6564 35.7696 59.1649 35.8066 58.7425C35.8116 58.6758 35.819 58.6116 35.8659 58.5523C35.7572 58.4387 35.6461 58.3547 35.6683 58.1226C35.6955 57.8286 35.5744 56.9543 35.5399 56.9444C35.5794 56.9197 35.5843 56.8876 35.5868 56.853C35.5917 56.7913 35.5596 56.7196 35.5251 56.648C35.5695 56.6208 35.7745 56.5542 35.814 56.5591C35.8239 56.4257 35.7967 56.3269 35.8116 56.1614C35.8536 56.1343 35.9054 56.0108 35.9104 55.9465C35.9104 55.9762 36.1821 55.1932 36.3821 55.1908L36.8391 54.966C36.844 54.8993 36.7724 54.8524 36.7798 54.756C36.8144 54.7956 36.8539 54.8005 36.8959 54.8079C36.8144 54.7956 37.1898 54.6227 37.1898 54.6227C37.2268 54.2324 37.4047 54.4597 37.827 54.1929C37.8665 54.2003 37.8641 54.2324 37.9406 54.2423C37.9802 54.2472 38.074 54.099 38.074 54.099C38.1531 54.1089 38.1481 54.1435 38.2617 54.2275C38.4248 54.188 38.3136 54.104 38.5087 54.1336C38.6273 54.1534 38.7384 54.2398 38.857 54.2546C38.894 54.2621 38.978 54.2423 39.0151 54.2472L39.3979 54.4078C39.7536 54.4621 39.7709 54.6992 40.2006 54.7659C40.3587 54.7882 40.9935 55.2204 41.1392 55.376C41.0873 55.9293 41.858 56.2158 41.7987 56.8357C41.7937 56.9024 41.7493 56.9271 41.7419 56.9913C41.7814 57.0012 41.811 57.105 41.8086 57.1346C41.8036 57.2013 41.7641 57.1939 41.7196 57.2531C41.7567 57.2927 41.7913 57.3297 41.7863 57.3643C41.7863 57.3964 41.4924 57.5471 41.3245 57.6187C41.3121 57.7521 41.3862 57.8286 41.4183 57.9027C41.3319 57.9546 40.5934 58.2016 40.5859 58.3004C40.5859 58.33 40.6181 58.372 40.6156 58.4017C40.3637 58.5622 39.8993 58.4214 39.6622 58.4165C39.6227 58.4115 39.6301 58.3127 39.5906 58.3078C39.435 58.2831 39.1954 58.2782 39.1954 58.2782C39.0793 58.2263 39.0842 58.1621 39.0867 58.1324C38.5087 57.9398 38.405 57.7941 38.3828 57.1593C38.3877 57.1272 38.7014 55.8873 39.6054 56.0281C39.761 56.0528 39.8227 56.2306 39.8203 56.2602C39.7956 56.522 39.0101 56.4331 38.9854 56.6925C38.9459 56.6875 38.9064 56.6801 38.8693 56.6406C38.936 57.2112 38.7137 57.8731 39.6572 58.0213L39.9709 58.0707L40.2649 57.92C40.2649 57.9521 40.5242 57.6953 40.6131 57.6113C40.8354 57.347 40.9046 57.063 40.996 56.9123C40.9391 56.6727 40.6872 55.9367 40.6922 55.9021C40.6526 55.8972 40.5687 55.949 40.5687 55.949C40.581 55.8181 40.6255 55.7613 40.6329 55.6946C40.6699 55.3044 40.0524 55.0747 39.5535 54.8993C39.514 54.8598 39.4448 54.7807 39.3263 54.7635C39.2868 54.7585 39.1657 54.7709 39.1262 54.7659C39.0175 54.6795 38.9015 54.6301 38.7829 54.6128C37.9999 54.4893 37.5776 55.1512 37.0268 55.0648C37.0638 55.1364 37.0935 55.2105 37.0885 55.2723C37.086 55.3068 36.6439 55.3365 36.6044 55.7588L36.5896 55.9219C36.5797 56.0206 36.3253 56.1787 36.3253 56.1787C36.2092 56.1614 36.3475 56.3837 36.0931 56.5393C36.1302 56.5789 36.1944 56.7221 36.1919 56.7517C36.187 56.8184 35.814 56.9889 35.9202 57.1074C35.9128 57.2062 36.0511 57.426 36.0511 57.426C36.0462 57.4903 36.0116 57.4162 35.9993 57.5495C36.0388 57.5545 36.1178 57.5644 36.1129 57.5989L36.0808 57.9595C36.1104 58.0633 36.182 58.1399 36.1672 58.3053L36.1574 58.4362C36.1351 58.6635 36.3969 58.8364 36.3796 59.0315C36.3747 59.0636 36.518 59.2513 36.676 59.276C36.7131 59.281 37.3158 60.0713 37.3232 60.0071C37.4639 60.1948 38.079 60.4245 38.2741 60.4863C38.2741 60.4863 38.3605 60.3998 38.5581 60.4319C38.6767 60.4492 38.8298 60.5061 38.8669 60.511C39.2991 60.5777 40.5168 60.3406 40.7588 60.3134C40.8799 60.301 41.1639 60.2442 41.2034 60.2492C41.322 60.2689 41.2553 60.1281 41.3319 60.138C41.3442 59.975 42.3915 59.8737 42.4285 59.4835C42.4335 59.4168 42.673 59.4217 42.6804 59.3551L42.9966 59.1846L43.125 59.1105L43.8734 58.5276L43.9179 58.2485L44.1081 58.167L44.0364 57.9941C44.5304 57.6113 44.8441 56.9617 44.9849 56.0355H45.1504L45.1998 55.9614L45.4517 56.2479L45.3998 55.3785H45.2467L45.1726 55.5044L45.0244 55.3785H44.6984C44.5378 54.9092 44.4736 54.5683 44.5008 54.3609L44.0167 53.9039L44.1748 53.6298H43.8586L43.9895 53.4247C43.6956 53.1802 43.4437 53.0468 43.2214 53.0221L43.125 52.8369C42.9349 52.6813 42.7521 52.5874 42.5965 52.5677L42.5174 52.6912L41.9987 52.5677L41.4578 52.6368L41.2306 52.5677L41.1664 52.4392L40.9317 52.4911L40.6971 52.3553C40.4847 52.3923 40.2896 52.3627 40.0944 52.2787L39.9685 52.3553L39.7017 52.1206L39.02 51.9255L39.0002 51.4982L38.7607 51.2858L38.7458 51.0141L38.4322 50.7572L38.4791 50.4855L38.7705 50.078L38.9879 50.0236C39.104 49.8927 39.2794 49.7939 39.5041 49.7273C39.2374 49.6976 39.1139 49.4259 38.9187 49.3296C38.8817 49.3296 38.8125 49.3617 38.736 49.3617C38.321 49.3617 37.2021 47.7859 37.049 46.8078C37.0391 46.751 37.0342 46.6942 37.0268 46.6398L36.765 46.9115C36.7353 46.9782 36.6291 47.0128 36.6341 47.0474C36.5476 47.2153 36.6439 47.3487 36.5896 47.4821C36.56 47.5512 36.3426 47.5834 36.3179 47.6846C36.2636 47.8205 36.313 47.8872 36.2166 47.9884C36.1574 48.0897 35.7819 48.1218 35.7943 48.1885C35.814 48.3243 35.6238 48.559 35.6313 48.5911C35.656 48.759 34.9545 49.3296 34.547 49.6334C34.1419 49.9347 34.3247 50.1348 33.759 50.1348C33.5318 50.1348 33.3984 50.2361 33.2107 50.2361C33.1712 50.2361 33.1342 50.2361 33.0526 50.204C33.0156 50.204 32.944 50.2361 32.9069 50.2361C32.492 50.2361 31.9758 49.8335 31.7485 49.8335C31.4077 49.8335 31.2792 49.4951 30.9804 49.2629C30.7605 48.9912 30.6148 48.7763 30.5136 48.6133C30.5111 48.6257 30.5086 48.638 30.5086 48.6578C30.5185 48.7245 30.1949 49.2975 29.822 49.8014C29.7627 49.9026 29.5083 49.9693 29.449 50.0706C29.323 50.2385 29.286 50.4732 29.0464 50.6387C28.9847 50.7103 28.6068 50.7103 28.629 50.8412C28.6389 50.9079 28.6932 51.0092 28.6982 51.0437C28.4289 51.2438 27.9843 51.5476 27.5348 51.7822C27.4261 52.0515 26.4406 52.5208 25.7614 52.5208C25.2353 52.5208 24.6005 52.0836 24.5091 51.7501C24.3066 51.4118 23.8793 51.3451 23.6323 50.977L23.6076 50.8412C23.5903 50.7078 23.4372 50.7078 23.4174 50.572C23.3903 50.404 23.5311 50.3373 23.5088 50.204C23.4767 50.0014 23.3582 49.9668 23.3335 49.8014L23.3112 49.668C23.2915 49.5321 23.3285 49.5321 23.3162 49.4654C23.3162 49.4654 23.205 49.2333 23.1951 49.1641C23.163 48.9616 23.2445 48.7615 23.2445 48.5244L23.1581 47.9884C23.1951 47.9884 23.3088 47.9884 23.2939 47.8872L23.2742 47.7513C23.4471 47.1808 23.4026 46.1755 23.5064 45.4024C23.4891 45.3011 23.6076 45.3332 23.6052 45.3011C23.7632 44.6293 23.8843 43.9575 23.9213 43.4857C23.9164 43.4536 24.0275 43.4536 24.0497 43.3499L23.9855 42.9473C23.9707 42.8485 24.0744 42.7793 24.0423 42.5768C24.0324 42.5101 23.6768 42.1742 23.3754 41.9396C23.1532 41.9717 22.8716 43.2832 22.7357 43.382C22.8024 43.3153 22.3801 43.9871 22.3899 44.0563C22.2121 44.3576 21.7305 44.659 21.7132 44.7948L21.3452 45.0986C21.1846 45.2666 20.7548 45.3999 20.577 45.7358C20.2263 45.6692 20.0929 45.768 20.0707 45.6346C19.9867 45.0986 20.8314 45.1974 21.0537 44.696L21.8663 43.8538C21.807 43.4857 22.3529 43.3499 22.2986 43.0164L22.3652 42.7126C22.3603 42.6781 22.3875 42.6138 22.4196 42.5768L22.4468 42.2755C22.5184 42.2434 22.4863 42.0433 22.5653 42.0433L22.6073 41.8408C22.6246 41.7098 22.5974 41.5394 22.7283 41.4036C22.469 40.9689 22.1627 40.6996 21.9231 40.1266L21.8811 39.8599C21.8762 39.8253 21.8317 39.7932 21.7478 39.724C21.7799 39.4548 22.143 38.8867 22.5184 38.8867C22.632 38.8867 22.7604 38.9855 22.8765 38.9855C22.9506 38.9855 23.0963 38.9534 23.21 38.9534C23.4199 39.3239 23.5533 39.4573 23.6175 39.8623C23.5805 39.8623 23.5187 39.9636 23.5261 39.9957L23.6471 40.7688C23.8546 41.3764 24.4696 41.6777 24.8302 42.0458L25.0229 42.3125C25.1093 42.3792 25.1637 42.7151 25.3143 42.7151C25.3539 42.7151 25.3884 42.7151 25.4008 42.7818L25.4255 42.9498C25.5959 43.0831 25.4897 43.3524 25.6626 43.4882H25.8133C25.9047 43.8241 26.001 44.1946 26.0652 44.5972C26.2677 45.8766 26.3542 47.3858 26.0578 47.8896C25.8108 48.2576 25.9615 49.2012 25.9442 49.8038C25.6626 50.409 25.7416 50.9104 25.8108 51.3475C25.8479 51.5846 25.8627 51.9181 26.127 51.9181C26.5049 51.9181 26.7444 51.518 27.0779 51.4834C27.2656 51.4834 27.3767 50.9795 27.7151 50.9795C27.7522 50.9795 27.9621 50.8782 27.9967 50.8437L28.4833 50.3398C28.6117 50.2064 28.7229 49.9372 28.8142 49.8038C29.5182 49.0752 29.0439 50.1718 30.3086 47.7118C30.2764 47.4055 30.2542 47.0597 30.3604 46.9486C30.3555 46.9165 30.274 46.8819 30.1999 46.8819C30.1999 46.6472 30.0245 45.3036 30.1702 45.269C30.2517 44.5972 30.2517 44.3626 30.2443 44.2934C30.2764 44.2613 30.4395 43.8562 30.4296 43.792C30.558 43.6562 30.2147 43.624 30.6371 42.9522C30.642 42.9868 30.7457 42.2162 31.6522 42.2162C31.8399 42.2162 32.1462 42.7176 32.1733 42.888L32.1956 43.0239C32.1215 43.0239 32.4525 43.2239 32.5315 43.7278C32.5463 43.8291 32.5043 44.0291 32.5093 44.0637C32.4697 44.0637 32.7439 44.5997 32.8032 44.9702C32.8229 45.1035 32.7464 45.1035 32.7316 45.2369C32.7488 45.3382 32.8328 45.4073 32.8452 45.474C32.8501 45.5061 32.818 45.5407 32.7859 45.5753C32.7612 45.642 32.9119 46.8523 32.8797 46.8868C32.9538 46.8868 32.9588 46.9189 32.9637 46.9535C32.981 47.0548 32.9316 47.2227 32.9588 47.3907C32.9637 47.4228 32.8229 48.4305 32.9267 49.1024C32.9538 49.2703 33.0452 49.3691 33.3515 49.6408H33.5022C33.7269 49.6408 33.8603 49.2703 34.1394 49.1345C34.668 49.1345 34.5445 48.8331 34.6581 48.8331C34.5939 48.8998 35.6905 48.1934 35.7276 47.7241C35.9301 47.3215 36.4118 46.3138 36.676 46.3138C36.6464 46.3434 37.1182 45.0961 37.459 44.8985C37.5109 44.8343 37.5627 44.7652 37.6294 44.7009C37.6887 44.5997 37.6245 44.4317 37.7233 44.3305C37.8369 44.0958 38.6298 43.3894 38.8422 43.2881H39.0694C39.1065 43.2881 39.1435 43.2881 39.2522 43.0214H39.4424C39.556 43.0214 39.4597 42.8855 39.5708 42.8855H39.7215C40.0574 42.6188 40.6551 42.5817 41.033 42.5817C41.5986 42.5817 41.4973 42.8855 41.9864 42.8855C42.1198 43.0214 42.0654 43.1523 42.1618 43.2881C42.5075 43.5598 42.762 43.9822 42.9694 44.5453C43.0213 44.5305 43.0682 44.5157 43.1053 44.4861C43.3547 44.2514 43.9006 43.3449 44.0315 43.3449C44.0611 43.2659 44.076 42.93 44.1254 42.8114C44.1352 42.7349 44.1698 42.2631 44.1155 41.905C44.0463 41.4727 43.5227 40.959 42.6928 40.6058C42.51 40.5687 42.4458 40.586 42.2161 40.5292C42.1025 40.5095 41.8258 40.4502 41.5393 40.4502C41.317 40.4502 40.7761 40.5292 40.8255 40.8256C40.8354 40.8849 40.8922 40.9615 40.8972 41.001C40.912 41.0998 40.7564 41.0998 40.7144 41.0998C40.5118 41.0998 40.3167 40.8256 40.2821 40.6058C40.4303 40.5687 40.3587 40.2625 40.5489 40.2007C40.7416 40.1612 40.7218 40.1834 40.9589 40.1414C41.0552 40.0624 41.2652 39.9858 41.6628 39.9858C42.6804 39.9858 43.1349 40.2748 43.745 40.6305C43.8191 40.6898 43.9599 40.7293 44.0364 40.7886C44.0389 40.8059 44.0266 40.8651 44.0315 40.9071C44.0858 41.2406 44.523 41.3023 44.6959 42.4039L44.7206 42.5595C44.5675 42.5595 44.6811 43.0115 44.649 43.2313C44.649 43.2313 44.439 43.4487 44.4662 43.6265C44.4662 43.7624 44.3106 43.9007 44.1822 44.0785C44.1846 44.1007 44.1204 44.1007 44.1056 44.1353C44.1427 44.3724 43.7969 44.4342 43.6042 44.6096C43.5227 44.6515 43.5178 44.7701 43.4634 44.8294C43.4412 44.8294 43.3943 44.8071 43.3498 44.8071C43.2164 44.8071 43.3029 44.943 43.2214 44.9825C43.1967 44.9825 43.1522 44.9652 43.1077 44.9652C43.1794 45.2023 43.2436 45.4592 43.3053 45.7383L43.5153 46.1088L43.4066 46.3756C43.4115 46.4077 43.4585 46.4768 43.4708 46.5435C43.4758 46.5756 43.4807 46.6077 43.4486 46.6448C43.3078 46.7115 43.5079 47.0128 43.377 47.1486H43.2288C43.0806 47.8872 43.1596 48.6281 42.2507 49.3296C42.1519 49.4309 41.9592 49.3988 41.858 49.463C41.858 49.463 41.6208 49.6803 41.2998 49.7989C41.2207 49.8285 41.1392 49.8532 41.0528 49.8656H41.0108L40.1167 50.078L39.8647 50.4386L39.8795 50.6782H39.7906L39.6647 51.2142L39.7363 51.3747L39.6795 51.5007L40.6749 51.8267C41.611 51.7156 42.3742 51.8069 42.9546 52.1058L43.1843 52.2787C43.5202 52.3429 43.8537 52.4738 44.1846 52.6912L44.2661 52.6368L44.6416 52.8369L45.7679 54.0398L45.9161 53.9039L46.0914 54.0398V54.0447ZM39.4621 47.9538C39.5634 48.5911 39.9487 49.3642 40.702 49.3642C42.2507 49.3642 42.1716 48.391 42.3668 48.1885C42.6928 47.6179 42.7743 46.9461 42.7768 46.2422C42.7471 45.7433 42.6977 45.5012 42.6557 45.232C42.5174 44.3601 41.9197 44.3947 41.8654 44.0588L41.8431 43.9229C41.6283 43.755 41.7789 43.755 41.3294 43.5524H40.9169L40.8305 43.7204C40.8008 43.7871 40.1908 44.2909 39.9042 44.5602C39.7956 44.6639 39.7215 44.8294 39.7042 44.9652C39.6029 45.2666 39.3781 45.768 39.3337 45.973C39.3386 46.0051 39.4424 46.1755 39.4522 46.2397C39.435 46.6077 39.3386 46.9436 39.3584 47.3141C39.3757 47.4154 39.4646 47.5167 39.4844 47.6155C39.5041 47.7488 39.4399 47.818 39.4597 47.9514L39.4621 47.9538ZM15.4198 42.3644L14.128 41.9618L13.5451 42.1372C13.8119 42.0285 14.0687 41.9321 14.2663 41.7914C14.2984 41.7914 14.3948 41.8161 14.4565 41.821C14.6788 41.8259 14.9554 41.495 15.1432 41.4307L15.6371 40.9936C15.7014 40.9936 15.7977 41.043 15.8273 41.0454C15.8273 41.0454 15.9484 40.8676 16.0101 40.7787L16.2892 40.6083C16.3806 40.4996 16.6301 40.3242 16.7857 40.2155C16.7733 39.8327 16.9857 39.4326 17.0697 39.0275C17.1216 38.6027 17.4007 38.3606 17.5168 38.0025C17.4525 37.9803 17.418 37.8864 17.3859 37.8419L17.3809 37.7061C17.371 37.3899 17.5242 37.1923 17.5217 36.9651L17.5168 36.8762C17.5044 36.4217 17.3266 35.698 17.255 35.4263C17.1883 35.3103 16.7807 34.3791 16.7807 34.263C16.7807 34.2482 16.7906 34.2408 16.8104 34.2408C16.6449 33.9197 16.0299 33.5442 16.0249 33.3639L16.02 33.2281C15.5334 32.7687 14.8591 32.4081 14.4121 32.3537C14.2861 32.3488 14.3157 32.2599 14.2836 32.2599C13.9625 32.1364 13.5155 32.0351 13.103 32.0252C12.1545 32.0005 11.9075 32.3315 11.7198 32.371C11.626 32.413 11.4679 32.3859 11.4062 32.4303L11.2505 32.5143C10.7467 32.6798 9.69449 33.5764 9.50924 33.774C9.28942 33.9024 9.35364 33.7912 9.13875 34.1025L9.01278 34.1691C8.76579 34.342 8.52374 34.8533 8.36813 34.8484C8.36813 34.8731 8.40024 34.9175 8.40024 34.9398C8.40518 35.0855 8.27921 35.2436 8.23229 35.2683V35.288C8.25205 35.3078 8.29156 35.3473 8.31873 35.3671C8.31873 35.3918 8.31873 35.4362 8.22982 35.5449L8.24958 36.2809C8.16313 36.1673 8.0668 36.0092 7.99517 35.7771C7.90872 35.6931 7.74077 35.6635 7.71607 35.5597C7.72101 35.4387 7.5654 35.0089 7.17269 34.8459C7.17269 34.8237 7.28877 34.752 7.28877 34.7298C7.22949 34.7298 6.62189 34.2729 6.62683 34.1321C6.6293 34.0531 5.98465 33.8728 5.98959 33.7122C5.29554 33.2898 4.96703 32.8897 3.74936 32.8206C3.1541 32.7835 1.56347 32.9342 1.12629 33.3763C1.01267 33.3886 1.0349 33.5294 0.945983 33.648C0.886704 33.7048 0.721219 33.6159 0.716279 33.7764V33.8555C0.743448 33.7962 0.192653 34.1889 0.185243 34.4878C0.182773 34.547 0.207472 34.6286 0.261811 34.6928C0.0913855 34.7224 0.197593 34.9694 -0.00247192 34.9571C0.0493967 35.1201 0.0716261 35.2633 0.0691561 35.4239C0.0642163 35.6042 0.0296372 35.7845 0.0246973 35.9623C0.0493967 35.9845 0.106205 35.9895 0.106205 36.0488C0.106205 36.1303 0.0716261 36.2266 0.0419869 36.3081C0.0691561 36.3279 0.209942 36.3575 0.239582 36.3797L0.232172 36.5798C0.229702 36.6415 0.424827 36.7725 0.365548 36.8885L0.580432 37.2417C0.797786 37.4789 0.708869 37.6098 1.29671 37.9679C1.29671 37.9679 1.2646 38.0049 1.2646 38.0247C1.2646 38.0642 1.65979 38.168 1.64991 38.3878C1.64991 38.5088 1.90185 38.5014 2.0698 38.5928C2.17848 38.6792 2.0698 38.6545 2.51933 38.7607L2.68729 38.7706C2.8009 38.7756 2.82807 38.7953 2.82807 38.7953L3.30971 38.8274C3.33194 38.8274 3.37146 38.8398 3.39863 38.8472C3.42333 38.825 4.53727 38.7262 4.91517 38.2347C4.9448 38.2149 5.11523 38.2248 5.14487 38.2075C5.20662 38.1284 5.23873 37.9704 5.29554 37.8345C5.52771 37.627 5.68331 37.1775 5.69813 36.8169C5.69813 36.7972 5.68578 36.5526 5.54006 36.439C5.46102 36.313 5.26096 36.3402 5.2659 36.1402C5.26837 36.0389 4.60642 35.5597 4.46811 35.4535C4.24581 35.3201 3.84815 35.293 3.73454 35.2905C3.56658 35.2806 3.56164 35.4016 3.532 35.3992C2.99109 35.3671 2.61319 35.6906 2.60578 36.0315L2.59343 36.3699C2.59343 36.4909 2.78361 36.6638 2.78114 36.8046C2.7515 36.7626 3.21585 37.3726 3.78394 37.4048C3.92472 37.4146 3.92966 37.3331 3.92966 37.2714C3.93707 37.0318 3.45791 36.9799 3.26278 36.8688C3.23561 36.8293 3.27019 36.728 3.04049 36.7156C3.04543 36.5551 3.0232 36.3526 3.03061 36.1895C3.03802 35.8907 3.13187 35.6338 3.7296 35.6462C3.78394 35.6486 3.89755 35.656 3.95189 35.6783L4.17666 35.7721C4.20382 35.7721 4.50516 36.0735 4.5916 36.1574C4.78179 36.3896 4.83119 36.6539 4.9942 36.8243C4.9374 36.8614 4.90776 36.9404 4.90035 37.0614C4.89788 37.1825 4.92505 37.3035 4.91764 37.4245C4.9127 37.5851 4.68052 37.6913 4.68052 37.753C4.67805 37.7925 4.70769 37.8345 4.70522 37.8963C4.69534 38.1976 3.60857 38.4792 3.55176 38.4742C3.49495 38.4718 3.43815 38.4471 3.41098 38.4446C3.29736 38.4965 3.18374 38.5113 3.04296 38.5039C2.72927 38.4866 2.22541 38.3162 2.03275 38.163C1.78082 38.0692 1.56594 37.6518 1.36834 37.6024C1.34117 37.6024 1.09418 37.3652 1.0349 37.2813C1.01267 37.2195 1.01761 37.0392 0.963272 36.9355C0.938573 36.8737 0.827426 36.8268 0.797787 36.765L0.718749 36.6391C0.718749 36.5996 0.610072 36.5106 0.580432 36.4909C0.580432 36.4316 0.642181 36.3526 0.642181 36.2933C0.617481 36.2513 0.506334 36.2044 0.476695 36.1624C0.476695 36.1229 0.508804 36.0414 0.508804 36.0241C0.397657 35.9771 0.372958 35.8561 0.375428 35.7721C0.375428 35.7524 0.491515 35.7005 0.493985 35.661C0.493985 35.619 0.439646 35.577 0.439646 35.577C0.466815 35.577 0.523624 35.5597 0.526094 35.5227C0.501395 35.5177 0.419887 35.3127 0.424827 35.1917C0.429766 35.0731 0.543383 35.0608 0.545853 34.9373C0.545853 34.9002 0.521154 34.8558 0.526094 34.7175L0.708869 34.3247C0.708869 34.3247 0.708869 34.226 0.740978 34.2062C0.740978 34.2062 0.797786 34.2309 0.824956 34.2309C0.824956 34.2309 0.827426 34.1321 0.938573 34.137C1.02749 34.0605 1.03243 33.9222 1.06207 33.8431C1.61286 33.3911 1.89691 33.4084 2.41312 33.2553C2.58355 33.2651 3.12693 33.0947 3.63574 33.1244C3.8605 33.1342 4.08527 33.2701 4.3372 33.3022C5.12017 33.69 5.42644 33.8283 5.92043 34.3198L6.11555 34.4532C6.17236 34.4976 6.19706 34.5964 6.19459 34.6162C6.2761 34.7224 6.44652 34.6903 6.43911 34.9299C6.43417 35.0731 6.6046 35.083 6.66141 35.1448C6.71328 35.2856 6.68117 35.4263 6.76021 35.5745C6.84171 35.7203 6.92322 35.824 6.92075 35.945C7.05907 36.9379 7.11588 37.8271 7.08871 38.7286C7.08624 38.8101 7.02449 38.9658 7.02449 38.9485C7.13811 38.9534 7.12823 39.193 7.12823 39.193C7.04178 39.2498 7.01214 39.3659 7.0072 39.5091C7.00226 39.6499 7.02449 39.7932 7.02202 39.9315C7.01708 40.092 6.9578 40.1686 6.87135 40.2847C6.86641 40.344 6.89358 40.428 6.88864 40.5243C6.89111 40.507 6.71822 40.6379 6.71328 40.7392V40.8602C6.7034 41.0998 6.7528 41.3443 6.74539 41.5641C6.73551 41.8457 6.50333 41.9519 6.49839 42.1322C6.49839 42.194 6.52556 42.2755 6.52062 42.3545C6.52062 42.394 6.48604 42.5546 6.42676 42.6904C6.42183 42.9349 6.52556 43.1819 6.51815 43.461C6.4811 43.7006 6.38725 43.955 6.37984 44.2168L6.3749 44.3947C6.36996 44.6985 6.49592 45.027 6.48604 45.3901C6.48604 45.3901 6.37243 45.4049 6.36996 45.4642C6.42677 45.5061 6.47863 45.5704 6.47616 45.6889C6.44405 45.7457 6.44405 45.768 6.44158 45.8099C6.44158 45.8717 6.46875 45.931 6.51568 46.1557C6.51568 46.178 6.42923 46.2125 6.42676 46.3113C6.42676 46.3509 6.54038 46.3163 6.53791 46.3978C6.53297 46.5583 6.44405 46.6942 6.43664 46.8942C6.43417 46.9733 6.45887 47.0573 6.48357 47.1585C6.51568 47.2227 6.54038 47.529 6.60213 47.7637L6.42676 47.818C6.61695 48.2996 6.65894 48.4108 6.63177 48.7492C6.60213 48.9122 6.57743 48.9764 6.56755 49.0554C6.76268 49.1691 6.78737 49.1839 7.00967 49.2382C7.23196 49.2901 7.30606 49.4704 7.51107 49.4901C7.73583 49.3321 7.77288 49.9199 7.89638 49.705L8.08903 49.8285L9.2993 51.5599C9.77846 51.7007 9.98841 51.8983 10.4626 51.9502C10.6874 51.9749 10.8702 51.8736 10.9838 51.886C11.6556 51.9576 12.2336 52.3429 13.0734 52.4318C13.8613 52.5183 14.9678 52.3133 15.2197 52.1404C15.2197 52.1404 15.3803 52.2392 15.5458 52.2565C15.4791 51.886 17.3957 51.6118 17.4649 51.0931L17.46 51.1327C17.5711 51.145 18.6603 50.2163 18.727 50.1422C19.142 49.584 19.5273 48.8208 19.6162 48.1465C19.8138 46.6398 19.0506 44.6688 18.0849 43.7994C17.0598 42.9251 15.8545 42.9942 15.4297 42.3471L15.4198 42.3644ZM17.7736 47.6328C17.5094 48.7665 17.0129 49.7643 16.798 50.1027L16.5164 50.5127C15.9335 51.4562 14.1725 51.802 12.3768 51.6118C12.0385 51.5748 11.5939 51.4858 11.6062 51.4093C10.9986 51.2586 10.3712 51.2734 9.93654 51.1055C9.83527 51.0166 9.59569 50.6683 9.39315 50.4831C9.36598 50.4584 9.31412 50.4262 9.25237 50.3917C9.24249 50.3349 9.23014 50.2781 9.21038 50.2237L9.07947 49.8952L8.91893 49.6062C8.78555 49.3592 8.87447 49.1814 8.74603 48.8109C8.72133 48.7096 8.61019 48.6034 8.58796 48.4207C8.59043 48.3614 8.61759 48.2823 8.625 48.1416C8.61266 48.0279 8.58796 47.9143 8.5682 47.7958C8.52127 47.5562 8.47434 47.3043 8.46199 47.0474L8.55338 46.751L8.59043 45.5876C8.65711 45.3505 8.71886 45.0912 8.75344 44.8738C8.75591 44.7923 8.872 44.7009 8.87694 44.617C8.88188 44.4144 8.71886 44.1847 8.72133 44.1057C8.72627 44.0044 8.86953 43.9353 8.87447 43.8315L8.87941 43.6537C8.88188 43.4931 8.97327 43.3351 8.97821 43.1548C8.97821 43.135 8.86953 43.0881 8.86953 43.0683C8.872 42.9695 9.01772 42.8757 9.0202 42.7744C9.02267 42.6731 9.00043 42.5521 9.00043 42.4484L9.0202 41.8655C9.0202 41.7864 9.07947 41.7914 9.07947 41.7099L9.10911 40.8478C9.11652 40.628 9.21038 40.2699 9.24743 40.0723C9.21779 40.0698 9.13628 40.0056 9.13628 39.9858C9.16592 39.9685 9.19309 39.929 9.19309 39.929C9.19556 39.9093 9.13875 39.9043 9.11158 39.9043C9.11405 39.8031 9.17333 39.766 9.1758 39.6647C9.18815 39.2844 9.03255 38.7731 8.84977 38.2816C8.8226 38.1803 8.77073 38.0766 8.77567 37.9975L8.68922 37.9309L8.61513 37.6616V37.5431C8.62254 37.3603 8.51386 37.2566 8.51386 37.2343C8.51386 37.1948 8.60031 37.1602 8.60525 37.017C8.58055 36.9552 8.43976 36.8268 8.44717 36.6885C8.47434 36.6712 8.47681 36.6514 8.47434 36.6317C8.47681 36.6243 8.47434 36.6193 8.47434 36.6119C8.63735 36.2933 8.60772 35.8339 8.6744 35.6511C8.91893 35.3646 9.21779 34.6508 9.21779 34.7397V34.5569C9.21285 34.5149 9.21285 34.4927 9.24249 34.4482C9.46478 34.4507 10.1094 33.8184 10.1094 33.7715C10.1045 33.5912 10.9171 33.1392 11.0085 33.0947C11.2876 32.8996 11.8532 32.7119 12.2657 32.7242C12.3917 32.7069 12.3892 32.5711 12.7053 32.581C12.9894 32.5884 13.2759 32.618 13.2141 32.7292C13.3401 32.7341 13.4043 32.7119 13.4661 32.7119C13.8489 32.8131 14.5874 33.1491 14.5948 33.3985C14.5973 33.4208 14.5973 33.4652 14.5652 33.4874C14.5726 33.6677 14.6665 33.6677 14.7332 33.7814C14.7579 34.6656 15.0617 35.2115 15.0888 36.2019C15.0888 36.2711 15.2173 36.3427 15.2197 36.4094C15.2247 36.523 15.0691 36.6539 15.0715 36.7675C15.0765 36.9256 15.0493 37.1034 15.0542 37.259C15.0567 37.3973 15.1259 37.511 15.1283 37.6443C15.1308 37.711 15.0048 37.7999 15.0073 37.8666C14.9851 38.2025 14.9307 38.5162 14.8764 38.7879C14.8863 39.1485 14.7603 39.2597 14.6739 39.5264C14.6294 40.2476 14.2787 40.1908 14.2886 40.4403C13.7353 41.1467 13.434 41.658 12.5843 41.9272C12.488 41.947 12.4287 42.0606 12.3373 42.1223C11.9273 42.1791 12.0236 42.2705 11.8038 42.3545C11.5494 42.3916 11.2629 42.3422 11.0455 42.4484C10.9813 42.4681 10.9887 42.6015 10.9591 42.6484C10.8628 42.6682 10.4478 42.5891 10.4577 42.8831C10.3935 42.9053 10.3293 42.9004 10.2675 42.9004L10.0773 42.8954L9.98347 42.9399C9.7587 42.972 9.47219 43.1795 9.40797 43.3696L9.24496 43.4141C9.24496 43.4141 9.24249 43.4265 9.24249 43.4289C9.18815 43.8266 9.91925 43.9032 10.1984 43.9328C12.2756 44.1551 12.6831 42.7917 14.9307 43.0337C15.5952 43.1869 15.8965 43.4635 16.1534 43.6883C16.0867 43.7648 16.7708 43.8216 16.756 43.9427C16.7116 44.2613 17.0969 44.3823 17.1858 44.5527L17.1611 44.7503C17.1166 45.0665 17.7909 45.7828 17.7514 46.0619C17.6847 46.5756 17.823 47.2376 17.7712 47.6328H17.7736Z" fill="#603312"/>
<path d="M62.8697 5.08313C62.8129 5.08313 62.7536 5.06831 62.6993 5.03867C61.983 4.62866 61.2642 4.0087 60.5628 3.19857C60.4393 3.05531 60.4541 2.84043 60.5973 2.71446C60.7406 2.59096 60.9555 2.60578 61.0814 2.74904C61.7335 3.50237 62.393 4.07045 63.0401 4.44341C63.2031 4.53727 63.2599 4.74721 63.1661 4.91023C63.1019 5.02138 62.9882 5.08313 62.8697 5.08313Z" fill="#603312"/>
<path d="M59.7773 4.76418C59.6563 4.76418 59.5377 4.69996 59.476 4.58387C59.1203 3.92193 58.7375 3.17107 58.3374 2.34858C58.2534 2.17816 58.325 1.97315 58.4954 1.89164C58.6659 1.80767 58.8709 1.87929 58.9524 2.04972C59.3476 2.86233 59.7279 3.60578 60.0787 4.25784C60.1676 4.42333 60.1058 4.6308 59.9403 4.72219C59.8885 4.74936 59.8341 4.76418 59.7773 4.76418Z" fill="#603312"/>
<path d="M60.4738 5.53483C60.3948 5.53483 60.3158 5.50767 60.2516 5.45333L58.5967 4.04793C58.4534 3.92444 58.4337 3.70955 58.5572 3.5663C58.6807 3.42304 58.8956 3.40575 59.0388 3.52678L60.6937 4.93217C60.8369 5.05567 60.8567 5.27055 60.7332 5.41381C60.6665 5.49285 60.5702 5.53483 60.4714 5.53483H60.4738Z" fill="#603312"/>
<path d="M63.176 7.16755C63.0821 7.16755 62.9907 7.1305 62.9216 7.05393C62.887 7.01441 62.8623 6.97243 62.8475 6.9255C62.7264 6.81929 62.3139 6.52043 60.9135 5.71523C60.7505 5.62137 60.6937 5.41143 60.7875 5.24841C60.8814 5.0854 61.0913 5.02859 61.2543 5.12245C63.4847 6.40187 63.502 6.55501 63.5242 6.76495C63.5366 6.87363 63.4872 7.00453 63.4057 7.07863C63.339 7.13791 63.2575 7.16755 63.176 7.16755Z" fill="#603312"/>
<path d="M61.2593 9.3906C61.1482 9.3906 61.0395 9.33626 60.9728 9.23747C60.869 9.07939 60.911 8.86698 61.0691 8.76324C62.1608 8.04202 62.3955 7.73822 62.4449 7.65177C62.4202 7.5011 62.5017 7.3455 62.6499 7.28375C62.8228 7.20965 63.0253 7.29116 63.0994 7.46405C63.2921 7.91358 62.8598 8.40263 61.4495 9.33626C61.3902 9.37331 61.326 9.39307 61.2618 9.39307L61.2593 9.3906Z" fill="#603312"/>
<path d="M63.3489 8.98301C63.2204 8.98301 63.0994 8.91138 63.0401 8.79036C62.9586 8.61993 63.0302 8.41493 63.1982 8.33342L64.4183 7.7431C64.5888 7.6616 64.7938 7.73075 64.8753 7.90118C64.9568 8.07161 64.8876 8.27661 64.7172 8.35812L63.4971 8.94843C63.4501 8.97066 63.3983 8.98301 63.3489 8.98301Z" fill="#603312"/>
<path d="M57.1641 3.54193C57.0826 3.54193 57.0011 3.5123 56.9344 3.45302L54.6251 1.36839C54.4843 1.24243 54.4744 1.02507 54.6004 0.884286C54.7263 0.7435 54.9437 0.73362 55.0845 0.859587L57.3938 2.94421C57.5346 3.07018 57.5445 3.28753 57.4186 3.42832C57.3519 3.50242 57.258 3.54193 57.1641 3.54193Z" fill="#603312"/>
<path d="M53.5012 1.50163C53.4271 1.50163 53.3506 1.47693 53.2864 1.42507C53.1382 1.30651 53.1159 1.09162 53.2345 0.943429L53.889 0.12835C54.0076 -0.0198457 54.2225 -0.0420751 54.3707 0.0740118C54.5189 0.192569 54.5411 0.407453 54.425 0.555649L53.7705 1.3732C53.7038 1.45717 53.6025 1.50163 53.5037 1.50163H53.5012Z" fill="#603312"/>
<path d="M49.8433 2.49932C49.6852 2.49932 49.5444 2.39064 49.5098 2.22763C49.4703 2.04238 49.5889 1.85961 49.7716 1.82009L52.5157 1.22977C52.701 1.19025 52.8837 1.30881 52.9233 1.49159C52.9628 1.67683 52.8442 1.85961 52.6615 1.89912L49.9174 2.48944C49.8927 2.49438 49.868 2.49685 49.8457 2.49685L49.8433 2.49932Z" fill="#603312"/>
<path d="M50.4089 2.99822C50.2533 2.99822 50.1125 2.88954 50.0755 2.73147C50.0335 2.54622 50.1495 2.36345 50.3348 2.32146L52.3379 1.86699C52.5207 1.825 52.7059 1.94109 52.7479 2.12386C52.7899 2.30911 52.6738 2.49188 52.491 2.53387L50.4855 2.98834C50.4608 2.99328 50.4336 2.99575 50.4089 2.99575V2.99822Z" fill="#603312"/>
<path d="M55.1586 4.04073C55.1215 4.04073 55.0845 4.03579 55.0499 4.02344L52.3478 3.11698C52.1675 3.0577 52.0711 2.86258 52.1329 2.68474C52.1922 2.50444 52.3873 2.40811 52.5651 2.46986L55.2672 3.37632C55.4475 3.4356 55.5439 3.63073 55.4821 3.81103C55.4352 3.95429 55.2994 4.0432 55.1586 4.0432V4.04073Z" fill="#603312"/>
<path d="M56.0354 5.16717C55.7736 5.16717 55.5019 5.11777 55.2203 5.01897C55.0425 4.95722 54.9486 4.7621 55.0104 4.58179C55.0721 4.40396 55.2672 4.3101 55.4475 4.37185C56.0675 4.5892 56.5812 4.483 57.0604 4.03594C57.1987 3.9075 57.4161 3.91491 57.5445 4.05323C57.6729 4.19154 57.6655 4.4089 57.5272 4.53733C57.0752 4.95475 56.5763 5.1647 56.0354 5.1647V5.16717Z" fill="#603312"/>
<path d="M59.5847 7.5853C59.3846 7.5853 59.2512 7.5853 57.8063 5.72297C57.6902 5.5723 57.7174 5.35742 57.8681 5.2438C58.0163 5.12771 58.2336 5.15488 58.3472 5.30555C59.2512 6.47136 59.5723 6.80727 59.681 6.9036C59.7279 6.91348 59.7749 6.9357 59.8144 6.96781C59.9626 7.0839 59.9873 7.30126 59.8712 7.44945C59.807 7.53096 59.6909 7.58777 59.5847 7.58777V7.5853Z" fill="#603312"/>
<path d="M59.8218 11.2481C59.7131 11.2481 59.6094 11.1987 59.5427 11.1024L57.9743 8.88189C57.8656 8.72875 57.9027 8.51387 58.0558 8.40519C58.2089 8.29651 58.4238 8.33356 58.5325 8.4867L60.1009 10.7072C60.2096 10.8603 60.1725 11.0752 60.0194 11.1839C59.9601 11.2259 59.8909 11.2456 59.8218 11.2456V11.2481Z" fill="#603312"/>
<path d="M56.8579 11.3392C56.8431 11.3392 56.8307 11.3392 56.8159 11.3367L54.593 11.065C54.4052 11.0428 54.2719 10.8699 54.2941 10.6846C54.3163 10.4969 54.4917 10.366 54.6745 10.3858L56.8974 10.6575C57.0851 10.6797 57.2185 10.8501 57.1963 11.0378C57.174 11.2107 57.0283 11.3392 56.8579 11.3392Z" fill="#603312"/>
<path d="M53.763 9.97845C53.6272 9.97845 53.4963 9.89694 53.4444 9.7611C53.3753 9.58573 53.4617 9.38567 53.6371 9.31651L55.9465 8.41004C56.1218 8.34088 56.3219 8.42733 56.391 8.60517C56.4602 8.78053 56.3738 8.9806 56.1959 9.04975L53.8865 9.95622C53.8445 9.97351 53.8026 9.98092 53.7606 9.98092L53.763 9.97845Z" fill="#603312"/>
<path d="M52.4564 7.98515C52.328 7.98515 52.207 7.91352 52.1477 7.79002C52.0662 7.6196 52.1378 7.41459 52.3082 7.33308C52.9183 7.04163 53.2394 6.6415 53.2913 6.11294C53.3086 5.92522 53.479 5.7869 53.6642 5.80419C53.852 5.82148 53.9903 5.98944 53.973 6.17715C53.8964 6.95518 53.437 7.55291 52.6022 7.95057C52.5552 7.9728 52.5034 7.98515 52.454 7.98515H52.4564Z" fill="#603312"/>
<path d="M53.7211 5.85388C53.6445 5.85388 53.5679 5.82918 53.5037 5.77731L51.8489 4.41638C51.7031 4.29535 51.6809 4.08047 51.8019 3.93474C51.9229 3.78902 52.1378 3.76679 52.2836 3.88781L53.9384 5.24875C54.0841 5.36977 54.1064 5.58466 53.9853 5.73038C53.9187 5.81189 53.8199 5.85635 53.7211 5.85635V5.85388Z" fill="#603312"/>
<path d="M51.2363 4.9916C51.1424 4.9916 51.0486 4.95208 50.9794 4.87798C50.8485 4.72979 50.2829 4.17158 49.2974 3.22066C49.1615 3.08975 49.1591 2.8724 49.29 2.73655C49.4209 2.60071 49.6382 2.59577 49.7741 2.72914C51.1202 4.0308 51.3993 4.31978 51.4907 4.42352C51.6167 4.5643 51.6043 4.78166 51.4635 4.90762C51.3993 4.96443 51.3178 4.99407 51.2363 4.99407V4.9916Z" fill="#603312"/>
<path d="M48.1439 3.22326C48.0353 3.22326 47.9266 3.17139 47.8599 3.07259C47.7537 2.91698 47.7932 2.7021 47.9488 2.59589C49.9865 1.20779 50.0952 1.1905 50.3274 1.48936C50.4434 1.63756 50.4187 1.85244 50.2706 1.971C50.2137 2.01546 50.1471 2.04016 50.0804 2.04263C49.9692 2.0945 49.5889 2.30691 48.3341 3.16151C48.2748 3.20103 48.2082 3.22079 48.1415 3.22079L48.1439 3.22326Z" fill="#603312"/>
<path d="M44.7898 3.99395C44.7058 3.99395 44.6193 3.96184 44.5551 3.90009C44.4168 3.76918 44.4119 3.5543 44.5428 3.41598C44.8491 3.09489 45.7777 2.11186 46.6521 2.57867C46.8201 2.66759 46.8818 2.87507 46.7929 3.04302C46.704 3.20851 46.4965 3.27273 46.3285 3.18381C45.9679 2.99115 45.3653 3.54195 45.0392 3.88774C44.9725 3.95937 44.8812 3.99395 44.7898 3.99395Z" fill="#603312"/>
<path d="M42.7397 7.98529C42.6706 7.98529 42.5989 7.96306 42.5397 7.9186C42.3865 7.80745 42.3519 7.59257 42.4631 7.43943L43.6832 5.76235C43.7944 5.60921 44.0093 5.57463 44.1624 5.68578C44.3155 5.79693 44.3501 6.01181 44.239 6.16495L43.0188 7.84203C42.9521 7.93342 42.8484 7.98282 42.7422 7.98282L42.7397 7.98529Z" fill="#603312"/>
<path d="M45.7901 5.12769C45.679 5.12769 45.5727 5.07582 45.5061 4.97703C45.3999 4.82142 45.4418 4.60654 45.5999 4.5028L47.0819 3.50495C47.24 3.39874 47.4524 3.44073 47.5561 3.5988C47.6623 3.75441 47.6203 3.96929 47.4622 4.07303L45.9803 5.07088C45.921 5.1104 45.8543 5.13016 45.7901 5.13016V5.12769Z" fill="#603312"/>
<path d="M48.2773 8.43745C48.2205 8.43745 48.1637 8.42263 48.1094 8.39546C47.8303 8.24232 47.4771 7.77303 46.7682 5.38214C46.7139 5.20183 46.8176 5.00918 47.0004 4.95731C47.1807 4.90297 47.3709 5.00671 47.4252 5.18948C48.0921 7.44453 48.3934 7.76068 48.4453 7.80267C48.6108 7.89406 48.6676 8.09907 48.5762 8.26455C48.5144 8.37817 48.3959 8.43992 48.2749 8.43992L48.2773 8.43745Z" fill="#603312"/>
<path d="M50.6262 6.71566C50.5719 6.71566 50.5175 6.70331 50.4657 6.67614C48.9022 5.84131 48.2501 5.24358 48.2798 4.67797C48.2897 4.49272 48.4453 4.36182 48.633 4.36182C48.8182 4.36676 48.9664 4.52977 48.964 4.71502C48.964 4.72984 48.9813 5.10774 50.7892 6.07101C50.9572 6.15993 51.0189 6.3674 50.93 6.53536C50.8683 6.65144 50.7497 6.71566 50.6287 6.71566H50.6262Z" fill="#603312"/>
<path d="M49.1023 8.2125C48.9442 8.2125 48.801 8.10136 48.7688 7.94081C48.7293 7.75557 48.8479 7.57526 49.0331 7.53574L50.9498 7.1282C51.135 7.08869 51.3178 7.20724 51.3573 7.39249C51.3969 7.57773 51.2783 7.75804 51.0931 7.80003L49.1764 8.20756C49.1517 8.2125 49.1295 8.21497 49.1048 8.21497L49.1023 8.2125Z" fill="#603312"/>
<path d="M45.7901 10.2058C45.6296 10.2058 45.4838 10.0898 45.4542 9.92675C45.4196 9.7415 45.5431 9.5612 45.7283 9.52662C47.8994 9.12155 48.5367 8.73377 48.7244 8.53864C48.8553 8.4028 49.0726 8.39786 49.2085 8.52876C49.3443 8.65967 49.3493 8.87702 49.2184 9.01287C48.7738 9.47722 47.7043 9.85512 45.8518 10.2009C45.8296 10.2058 45.8099 10.2058 45.7876 10.2058H45.7901Z" fill="#603312"/>
<path d="M48.4823 11.1786C48.3465 11.1786 48.2057 11.1712 48.06 11.1539C47.8723 11.1342 47.7364 10.9638 47.7586 10.776C47.7784 10.5883 47.9488 10.45 48.1365 10.4747C49.127 10.5834 49.7618 10.2697 50.1446 9.48673C50.2261 9.31631 50.4311 9.24468 50.6015 9.32866C50.772 9.41016 50.8411 9.61517 50.7596 9.78559C50.3125 10.7019 49.5296 11.1786 48.4823 11.1786Z" fill="#603312"/>
<path d="M52.328 10.8848C52.2267 10.8848 52.1255 10.8403 52.0563 10.7514L50.9671 9.34601C50.851 9.19535 50.8782 8.98046 51.0288 8.86685C51.177 8.75076 51.3919 8.77793 51.508 8.9286L52.5972 10.334C52.7133 10.4822 52.6862 10.6995 52.538 10.8156C52.4762 10.865 52.4021 10.8873 52.328 10.8873V10.8848Z" fill="#603312"/>
<path d="M44.9182 10.7489C44.8738 10.7489 44.8268 10.739 44.7824 10.7217L42.9966 9.95113C42.8237 9.87703 42.7422 9.6745 42.8188 9.5016C42.8929 9.32871 43.0954 9.2472 43.2683 9.32377L45.0541 10.0944C45.227 10.1685 45.3085 10.371 45.2344 10.5439C45.1776 10.6723 45.0516 10.7514 44.9207 10.7514L44.9182 10.7489Z" fill="#603312"/>
<path d="M44.2662 9.29916C44.1106 9.29916 43.9722 9.19295 43.9327 9.03734C43.8883 8.85457 44.0019 8.66932 44.1847 8.62486C45.2294 8.37293 45.9062 8.00985 46.1408 7.5702C46.2298 7.40472 46.4372 7.3405 46.6052 7.43188C46.7707 7.5208 46.8349 7.72828 46.7435 7.89623C46.4027 8.52854 45.6197 8.98547 44.3427 9.29174C44.3156 9.29915 44.2884 9.30162 44.2637 9.30162L44.2662 9.29916Z" fill="#603312"/>
<path d="M44.812 7.50353C44.5749 7.50353 44.3254 7.44178 44.0686 7.31335C43.8981 7.22937 43.829 7.02436 43.9129 6.85394C43.9969 6.68598 44.2019 6.61436 44.3724 6.69833C44.7898 6.90334 45.0812 6.849 45.3505 6.51803C45.469 6.36983 45.6839 6.3476 45.8321 6.46616C45.9778 6.58472 46.0025 6.80207 45.8815 6.9478C45.5851 7.31335 45.2171 7.50106 44.812 7.50106V7.50353Z" fill="#603312"/>
<path d="M43.3967 12.1839C43.2387 12.1839 43.0954 12.1444 42.967 12.0678C42.7175 11.9196 42.5668 11.6504 42.51 11.2502C41.9839 11.3046 41.4578 11.27 41.2627 10.8872C41.0627 10.4969 41.3047 10.0103 42.0654 9.25701C42.1988 9.12363 42.4162 9.1261 42.5496 9.25948C42.6829 9.39286 42.6805 9.61021 42.5471 9.74359C42.0605 10.2252 41.9321 10.4673 41.8975 10.5611C41.9864 10.5858 42.2235 10.613 42.7743 10.5216L43.172 10.4549V10.8575C43.172 11.2502 43.251 11.4355 43.3202 11.475C43.3844 11.5121 43.5696 11.4972 43.8883 11.3243C44.0537 11.2354 44.2637 11.2972 44.3526 11.4627C44.4415 11.6281 44.3798 11.8356 44.2143 11.927C43.9055 12.095 43.6363 12.1765 43.4017 12.1765L43.3967 12.1839Z" fill="#603312"/>
<path d="M53.4247 24.7832C52.7504 24.7832 52.044 24.7585 51.3005 24.7115C49.3789 24.6844 47.7068 24.2151 46.3483 23.3135C45.4023 23.2938 44.0216 21.4413 41.1862 10.3069C41.1392 10.1241 41.2504 9.93639 41.4331 9.88946C41.6159 9.84253 41.8036 9.95368 41.8506 10.1365C44.933 22.2465 46.168 22.6664 46.3804 22.6244C46.4693 22.6096 46.5607 22.6269 46.6348 22.6788C47.897 23.5457 49.4752 23.9977 51.3252 24.0224C57.7471 24.4423 61.3951 23.0344 62.1855 19.8408C62.188 19.826 62.1929 19.8112 62.1979 19.7988C64.4776 13.9871 65.2137 11.1417 65.3569 9.75608C65.0531 10.0796 64.5443 10.1982 63.8033 10.1167C63.7515 10.5588 63.5835 10.8824 63.2945 11.08C62.8821 11.364 62.2819 11.3591 61.4618 11.0602C61.1556 11.6135 60.7826 11.9469 60.3528 12.0556C59.9651 12.1544 59.5476 12.0655 59.1105 11.7938C58.5868 12.2729 58.1052 12.4755 57.6507 12.4137C57.3247 12.3693 57.0357 12.189 56.7887 11.8778C56.0502 12.5249 55.4006 12.8213 54.8152 12.7793C54.4966 12.7571 54.2101 12.636 53.9557 12.4162C53.7161 12.6583 53.437 12.8064 53.1184 12.8583C52.5478 12.9522 51.8933 12.7299 51.1276 12.184C50.8757 12.5817 50.5694 12.8114 50.2138 12.8657C49.7593 12.9349 49.2777 12.7225 48.7516 12.2112C48.4058 12.5298 48.0377 12.6928 47.6524 12.6928H47.65C47.1609 12.6928 46.6818 12.4409 46.1927 11.9272C45.7456 12.2828 45.343 12.4113 44.9676 12.3223C44.5428 12.2211 44.2118 11.8432 43.9846 11.1961C43.9228 11.0182 44.0167 10.8231 44.1945 10.7589C44.3724 10.6971 44.5675 10.7885 44.6317 10.9688C44.7725 11.3689 44.9479 11.6135 45.1282 11.6555C45.3258 11.7024 45.632 11.5394 45.9877 11.1985C46.0569 11.1318 46.1482 11.0973 46.2446 11.1047C46.3409 11.1096 46.4274 11.1541 46.4891 11.2282C46.9164 11.7468 47.3066 12.0087 47.6524 12.0111C47.9241 12.0111 48.2057 11.8382 48.4873 11.4999C48.5515 11.4233 48.6454 11.3788 48.7441 11.3764C48.8479 11.3764 48.9393 11.4159 49.006 11.49C49.4506 11.9864 49.8433 12.2334 50.11 12.1939C50.3743 12.1519 50.5768 11.8111 50.7028 11.5344C50.7473 11.4381 50.8312 11.3665 50.935 11.3418C51.0387 11.3171 51.1474 11.3418 51.2289 11.406C51.96 11.9864 52.575 12.2557 53.0097 12.1865C53.2592 12.147 53.4691 11.9914 53.647 11.7147C53.7062 11.6209 53.81 11.5641 53.9211 11.5591C54.0347 11.5567 54.1385 11.6036 54.2052 11.6925C54.4028 11.9494 54.6177 12.0828 54.8646 12.1C55.3117 12.1322 55.9168 11.7913 56.6134 11.1096C56.6899 11.0355 56.7961 11.0009 56.9023 11.0157C57.0085 11.0306 57.0999 11.0948 57.1518 11.1886C57.3346 11.5246 57.5346 11.7073 57.7446 11.737C58.0212 11.774 58.3966 11.5591 58.8289 11.1145C58.9499 10.991 59.1426 10.9762 59.2809 11.08C59.6341 11.3492 59.9379 11.4529 60.1849 11.3912C60.4739 11.3195 60.7431 11.0133 60.9851 10.4847C61.0617 10.3168 61.2593 10.2402 61.4297 10.3118C62.3881 10.7144 62.766 10.6131 62.9067 10.5144C63.1118 10.3736 63.1439 10.0105 63.134 9.73138C63.1315 9.62764 63.1735 9.52885 63.2525 9.45969C63.3316 9.393 63.4353 9.36336 63.5366 9.38065C64.2208 9.50415 64.7049 9.46463 64.8703 9.2695C65.0037 9.11143 64.9815 8.76317 64.8111 8.29388C64.7715 8.18767 64.7888 8.06665 64.8555 7.97526C64.9222 7.88387 65.0334 7.83447 65.147 7.83447C65.436 7.84682 65.6706 7.9802 65.8287 8.22225C66.2683 8.89654 66.4388 10.8527 62.845 20.0211C62.0497 23.1802 58.8832 24.7733 53.4222 24.7733L53.4247 24.7832Z" fill="#603312"/>
<path d="M46.1557 22.6766C46.089 22.6766 46.0198 22.6618 45.9556 22.6297C45.6419 22.4765 45.059 22.195 41.4554 11.147C41.3961 10.9667 41.4949 10.774 41.6752 10.7147C41.8555 10.6554 42.0482 10.7542 42.1074 10.9345C42.1642 11.1074 42.2186 11.2779 42.2729 11.4434C42.1741 10.8654 42.1889 10.5764 42.2359 10.406C42.2853 10.2232 42.473 10.117 42.6558 10.1664C42.8385 10.2158 42.9447 10.406 42.8953 10.5863C42.7817 11.0037 43.0979 13.0686 46.5014 22.2098C46.5336 22.2962 46.5286 22.3901 46.4916 22.4716C46.4545 22.5556 46.3829 22.6173 46.2989 22.6494C46.252 22.6667 46.2026 22.6741 46.1557 22.6741V22.6766Z" fill="#603312"/>
<path d="M46.7929 23.0346C46.657 23.0346 46.5261 22.9507 46.4743 22.8173C45.2023 19.5421 44.155 15.7706 43.3646 11.6038C43.3301 11.4185 43.4511 11.2382 43.6363 11.2036C43.824 11.1691 44.0019 11.2901 44.0364 11.4753C44.8194 15.6001 45.8543 19.3322 47.1115 22.5678C47.1807 22.7432 47.0918 22.9432 46.9164 23.0099C46.8744 23.0248 46.8324 23.0322 46.7929 23.0322V23.0346Z" fill="#603312"/>
<path d="M47.3585 23.5335C47.193 23.5335 47.0498 23.4149 47.0201 23.247L45.1899 12.32C45.1578 12.1347 45.2838 11.9569 45.4715 11.9248C45.6567 11.8952 45.8346 12.0187 45.8667 12.2064L47.6969 23.1334C47.729 23.3186 47.603 23.4964 47.4153 23.5285C47.3956 23.531 47.3783 23.5335 47.3585 23.5335Z" fill="#603312"/>
<path d="M48.5787 23.6694C48.4082 23.6694 48.26 23.541 48.2403 23.3681C47.8797 20.3153 47.6895 16.7487 47.6722 12.7671C47.6722 12.577 47.8229 12.4238 48.013 12.4238C48.2008 12.4238 48.3539 12.577 48.3564 12.7647C48.3737 16.7215 48.5638 20.2634 48.9195 23.2891C48.9417 23.4768 48.8084 23.6472 48.6207 23.6694C48.6083 23.6694 48.5935 23.6694 48.5811 23.6694H48.5787Z" fill="#603312"/>
<path d="M50.4089 23.9853C50.2187 23.9853 50.0656 23.8322 50.0656 23.642V12.5792C50.0656 12.389 50.2187 12.2358 50.4089 12.2358C50.5991 12.2358 50.7522 12.389 50.7522 12.5792V23.642C50.7522 23.8322 50.5991 23.9853 50.4089 23.9853Z" fill="#603312"/>
<path d="M53.4247 23.9015C53.3777 23.9015 53.3308 23.8941 53.2913 23.8768C52.9751 23.741 52.7479 23.6422 52.7677 12.898C52.7677 12.7103 52.9208 12.5571 53.111 12.5571C53.3012 12.5571 53.4518 12.7103 53.4518 12.9004C53.437 20.782 53.5778 22.8296 53.6791 23.2939C53.6889 23.3013 53.6964 23.3088 53.7038 23.3186C53.8347 23.4569 53.8273 23.6718 53.6914 23.8027C53.6247 23.867 53.521 23.904 53.4222 23.904L53.4247 23.9015Z" fill="#603312"/>
<path d="M55.2895 23.4863C55.1092 23.4863 54.9585 23.3456 54.9486 23.1628L54.425 12.962C54.4151 12.7742 54.5608 12.6112 54.7485 12.6013C54.9387 12.5939 55.0993 12.7372 55.1092 12.9249L55.6328 23.1257C55.6427 23.3135 55.4969 23.4765 55.3092 23.4863C55.3043 23.4863 55.2969 23.4863 55.2919 23.4863H55.2895Z" fill="#603312"/>
<path d="M56.727 23.5336C56.5368 23.5336 56.3861 23.3779 56.3861 23.1902L56.4306 11.584C56.4306 11.3963 56.5837 11.2432 56.7739 11.2432C56.9641 11.2432 57.1147 11.3988 57.1147 11.5865L57.0703 23.1927C57.0703 23.3804 56.9171 23.5336 56.727 23.5336Z" fill="#603312"/>
<path d="M58.4263 23.1706C58.4263 23.1706 58.4189 23.1706 58.4139 23.1706C58.2262 23.1632 58.078 23.0051 58.0829 22.8174L58.4757 11.799C58.4831 11.6113 58.6387 11.4606 58.8289 11.468C59.0166 11.4754 59.1648 11.6335 59.1598 11.8212L58.7671 22.8396C58.7597 23.0249 58.609 23.1706 58.4263 23.1706Z" fill="#603312"/>
<path d="M59.9527 22.5798C59.9404 22.5798 59.928 22.5798 59.9157 22.5798C59.7279 22.5601 59.5921 22.3921 59.6119 22.2019C59.6119 22.2019 60.0021 18.5588 60.7876 11.275C60.8073 11.0872 60.9777 10.9514 61.1655 10.9711C61.3532 10.9909 61.489 11.1613 61.4693 11.349C60.6838 18.6329 60.2936 22.276 60.2936 22.276C60.2738 22.4514 60.1256 22.5823 59.9527 22.5823V22.5798Z" fill="#603312"/>
<path d="M61.1728 22.2169C61.1531 22.2169 61.1358 22.2169 61.116 22.212C60.9283 22.1798 60.8048 22.0045 60.8345 21.8168L62.6202 11.117C62.6523 10.9293 62.8277 10.8058 63.0154 10.8354C63.2031 10.8676 63.3266 11.0429 63.297 11.2306L61.5112 21.9304C61.4841 22.0983 61.3383 22.2169 61.1728 22.2169Z" fill="#603312"/>
<path d="M63.7942 10.2016L61.8354 20.2227L62.5068 20.3539L64.4656 10.3328L63.7942 10.2016Z" fill="#603312"/>
<path d="M63.3069 17.5934C63.2698 17.5934 63.2303 17.586 63.1932 17.5737C63.0154 17.5119 62.9216 17.3168 62.9833 17.1365C64.5986 12.5153 64.6579 10.7665 64.4208 10.112C64.3566 9.93417 64.448 9.73905 64.6258 9.67483C64.8036 9.61061 64.9988 9.702 65.063 9.87983C65.4656 10.9987 64.9963 13.4439 63.6255 17.3613C63.5761 17.502 63.4427 17.591 63.3019 17.591L63.3069 17.5934Z" fill="#603312"/>
<path d="M53.5852 23.9931C51.3475 23.9931 48.7911 23.6399 45.9259 22.9335L46.089 22.269C53.8791 24.1907 59.2611 23.4521 62.0843 20.0708L62.6104 20.5104C60.6715 22.8322 57.6507 23.9955 53.5852 23.9955V23.9931Z" fill="#603312"/>
<path d="M56.9443 7.84956C56.8776 7.84956 56.8134 7.8298 56.7541 7.79275L54.9239 6.56766C54.7658 6.46145 54.7239 6.24904 54.8301 6.09343C54.9363 5.93536 55.1462 5.89337 55.3043 5.99958L57.1345 7.22466C57.2926 7.33087 57.3346 7.54328 57.2284 7.69889C57.1617 7.79769 57.053 7.84956 56.9443 7.84956Z" fill="#603312"/>
</g>
<defs>
<clipPath id="clip0_39_4">
<rect width="107" height="61.0444" fill="white"/>
</clipPath>
</defs>
</svg>
